<?xml version="1.0"?>
<svg version="1.1" xmlns="http://www.w3.org/2000/svg" width="450px" height="200px" style="border: dashed 2px #aaa"><path fill="#" d="M176.98875,113.80859375q0.0546875-2.857421875,0.2392578125-5.701171875t0.3212890625-5.701171875q0.02734375-1.09375,0.02734375-1.9892578125t0.0888671875-1.5517578125t0.328125-1.0048828125t0.7998046875-0.3486328125q0.478515625,0,0.724609375,0.13671875t0.3759765625,0.3486328125t0.1572265625,0.478515625t0.02734375,0.5400390625q0,0.396484375,0.02734375,0.7861328125t0.02734375,0.7861328125q0,2.884765625-0.1572265625,5.755859375t-0.1572265625,5.783203125q0,0.423828125,0.013671875,0.8544921875t0.013671875,0.8818359375q0,0.1640625-0.150390625,0.2734375t-0.3759765625,0.1845703125t-0.478515625,0.1025390625t-0.4169921875,0.02734375q-0.19140625,0-0.4306640625-0.02734375t-0.46484375-0.1162109375t-0.3828125-0.2119140625t-0.1572265625-0.287109375z M177.754375,95.26953125q0-0.13671875,0.041015625-0.3076171875t0.095703125-0.3076171875q0.02734375-0.1640625,0.08203125-0.560546875t0.1982421875-0.7724609375t0.396484375-0.669921875t0.7177734375-0.2939453125l0.259765625,0q0.21875,0.0546875,0.4443359375,0.13671875t0.2255859375,0.396484375q0,0.13671875-0.013671875,0.259765625t-0.041015625,0.2734375q-0.109375,0.806640625-0.2119140625,1.271484375t-0.2392578125,0.7041015625t-0.3486328125,0.3076171875t-0.5400390625,0.095703125q-0.109375,0-0.2939453125-0.013671875t-0.35546875-0.068359375t-0.2939453125-0.1708984375t-0.123046875-0.2802734375z M183.04087890625,111.703125q0.08203125-2.21484375,0.1435546875-4.5390625t0.1162109375-4.5869140625t0.08203125-4.3955078125t0.02734375-3.978515625q0.02734375-0.369140625,0.642578125-0.587890625t1.4697265625-0.3212890625t1.8046875-0.1298828125t1.6884765625-0.02734375q0.1640625,0,0.68359375-0.013671875l0.259765625,0q0.396484375,0,0.833984375,0.02734375q0.57421875,0.041015625,1.0048828125,0.177734375t0.4306640625,0.396484375q0,0.19140625-0.150390625,0.3076171875t-0.3486328125,0.1708984375t-0.41015625,0.068359375t-0.2939453125,0.013671875q-1.28515625,0-2.54296875-0.041015625q-0.341796875-0.013671875-0.697265625-0.013671875q-0.9296875,0-1.88671875,0.08203125q0.0546875,0.1640625,0.0888671875,0.9912109375t0.0341796875,1.8662109375t-0.013671875,2.0302734375t0,1.5244140625l0,3.5546875q0.423828125-0.02734375,0.833984375-0.02734375l0.8203125,0l0.546875-0.02734375q0.2734375-0.013671875,0.57421875-0.013671875q0.314453125,0,0.642578125,0.013671875q0.65625,0.02734375,1.1962890625,0.1572265625t0.5400390625,0.4580078125q0,0.24609375-0.205078125,0.3623046875t-0.4580078125,0.1708984375t-0.478515625,0.0546875l-0.2529296875,0q-0.779296875,0-1.6201171875-0.0546875t-1.5654296875-0.0546875q-0.13671875,0.0546875-0.2939453125,0.041015625t-0.2802734375-0.013671875q0,2.05078125-0.041015625,4.0810546875t-0.095703125,4.0400390625q0,0.396484375-0.4990234375,0.51953125t-0.9501953125,0.123046875q-0.505859375,0-0.7998046875-0.123046875t-0.4169921875-0.4033203125t-0.150390625-0.7451171875q-0.013671875-0.259765625-0.02734375-0.57421875q0-0.259765625,0.013671875-0.560546875z M193.3586328125,94.544921875q0-0.19140625,0.2666015625-0.2939453125t0.3486328125-0.1025390625l0.505859375-0.08203125q0.505859375-0.08203125,1.025390625-0.1435546875t1.01171875-0.1162109375q1.736328125-0.21875,3.47265625-0.4306640625t3.5-0.2119140625q0.13671875,0,0.3759765625,0.013671875t0.478515625,0.0751953125t0.41015625,0.1708984375t0.1708984375,0.30078125q0,0.13671875-0.1298828125,0.2392578125t-0.3076171875,0.1572265625t-0.3623046875,0.068359375t-0.2939453125,0.013671875l-0.2392578125,0t-0.2392578125-0.0546875q-0.724609375,0-1.4287109375,0.068359375t-1.4287109375,0.123046875q0.19140625,0.21875,0.205078125,0.615234375t0.02734375,0.68359375q0,4.83984375,0.068359375,9.625t0.123046875,9.666015625l0,0.02734375q-0.451171875,0.396484375-0.7724609375,0.505859375t-0.6494140625,0.109375q-0.314453125,0-0.6357421875-0.1162109375t-0.7724609375-0.4990234375l0-0.02734375l0.109375-10.732421875q0-1.06640625-0.02734375-2.3515625t-0.02734375-2.6044921875t0.041015625-2.5498046875t0.21875-2.146484375q-0.806640625,0.08203125-1.708984375,0.24609375q-0.779296875,0.13671875-1.490234375,0.13671875l-0.24609375,0q-0.0546875,0-0.3212890625,0.013671875t-0.546875-0.013671875t-0.505859375-0.109375t-0.2255859375-0.2734375z M206.87560546875,112.5234375q0.02734375-0.57421875,0.02734375-1.12109375q0-1.982421875,0.1435546875-3.951171875t0.1982421875-3.951171875q0.08203125-2.26953125,0.150390625-4.498046875t0.2734375-4.484375q0.0546875-0.560546875,0.3212890625-0.7314453125t0.7998046875-0.1708984375q0.24609375,0,0.65625,0.095703125t0.41015625,0.46484375q0.19140625,0.02734375,0.3828125,0.02734375q0.287109375,0,0.587890625-0.0546875q0.4921875-0.08203125,1.0048828125-0.1845703125t1.0185546875-0.1982421875t0.970703125-0.095703125q0.109375,0,0.3076171875,0.013671875t0.396484375,0.08203125t0.3349609375,0.1708984375t0.13671875,0.2666015625t-0.3212890625,0.2939453125t-0.8408203125,0.2255859375t-1.12109375,0.1640625t-1.17578125,0.1162109375t-1.0185546875,0.0751953125t-0.6357421875,0.02734375l-0.02734375,5.140625l0.02734375,2.556640625q0.423828125,0,1.271484375-0.02734375q0.341796875-0.013671875,0.68359375-0.013671875q0.51953125,0,1.06640625,0.02734375q0.90234375,0.041015625,1.626953125,0.1640625t0.916015625,0.4375q0,0.19140625-0.1982421875,0.3076171875t-0.4443359375,0.1708984375t-0.4990234375,0.068359375t-0.3623046875,0.013671875q-1.01171875,0-2.037109375-0.041015625t-2.0234375-0.1640625q0,1.681640625-0.0888671875,3.3359375t-0.0888671875,3.3359375q0,0.724609375,0.013671875,1.4287109375t0.1640625,1.4013671875q0.369140625-0.02734375,0.7998046875-0.068359375t0.875-0.1025390625t0.8544921875-0.1025390625t0.7109375-0.041015625q0.1640625,0,0.4443359375,0.041015625t0.57421875,0.13671875t0.505859375,0.2392578125t0.2119140625,0.3349609375q0,0.21875-0.4033203125,0.3896484375t-1.0322265625,0.2734375t-1.3740234375,0.1435546875t-1.4423828125,0.0546875t-1.2578125,0.013671875l-0.79296875,0q-0.751953125,0-1.1005859375-0.2802734375t-0.4853515625-0.7314453125q-0.109375-0.369140625-0.095703125-0.833984375l0-0.19140625z M218.24609375,105.400390625q0-2.3515625,0.1298828125-4.6484375t0.3212890625-4.6484375q0.0546875-0.615234375,0.068359375-1.189453125t0.1298828125-1.0048828125t0.41015625-0.68359375t0.9091796875-0.2529296875q0.396484375,0,0.8271484375,0.13671875t0.4306640625,0.642578125q0,1.900390625-0.1572265625,3.7392578125t-0.2119140625,3.6572265625q1.490234375-1.681640625,3.185546875-3.1376953125t3.595703125-2.8779296875q0.2734375-0.19140625,0.697265625-0.205078125q0.13671875,0,0.2392578125,0.013671875t0.2119140625,0.041015625q0.13671875,0.0546875,0.2802734375,0.1298828125t0.1435546875,0.2119140625q0,0.109375-0.123046875,0.19140625q-1.421875,1.1484375-2.8095703125,2.337890625t-2.6455078125,2.54296875q0.1640625,0.314453125,0.2802734375,0.587890625t0.2529296875,0.587890625q1.1484375,2.720703125,1.9619140625,5.5712890625t1.7294921875,5.6533203125q0.08203125,0.314453125,0.2392578125,0.6494140625t0.2939453125,0.669921875t0.2392578125,0.62890625t0.1025390625,0.4853515625q0,0.24609375-0.1572265625,0.3896484375t-0.3623046875,0.2255859375t-0.4443359375,0.109375t-0.4443359375,0.02734375q-0.478515625,0-0.8544921875-0.13671875t-0.5947265625-0.615234375q-1.01171875-3.2265625-1.9482421875-6.453125t-1.8935546875-6.5078125q-0.314453125,0.314453125-0.62890625,0.7861328125t-0.57421875,0.8681640625q0,2.05078125,0.095703125,4.07421875t0.328125,4.07421875q0.0546875,0.587890625,0.1845703125,1.17578125t0.1298828125,1.203125q0,0.451171875-0.46484375,0.62890625t-1.025390625,0.177734375q-0.615234375,0-0.9228515625-0.123046875t-0.4375-0.3212890625t-0.1572265625-0.4375t-0.08203125-0.4580078125q-0.314453125-2.16015625-0.396484375-4.2724609375t-0.08203125-4.2451171875z M232.20056640625,97.5595703125q-0.02734375-0.3623046875,0.0615234375-0.68359375t0.3349609375-0.533203125t0.833984375-0.2119140625q0.13671875,0,0.3349609375,0.02734375t0.396484375,0.0888671875t0.3212890625,0.1708984375t0.123046875,0.30078125q0,0.505859375,0.0341796875,1.3330078125t0.0888671875,1.72265625t0.1025390625,1.75t0.0888671875,1.3876953125q1.06640625-0.0546875,2.146484375-0.0546875t2.1328125-0.0546875l1.88671875-0.0546875l0-1.353515625q0-2.26953125-0.0888671875-4.5458984375t-0.3076171875-4.5458984375q0-0.1640625,0.13671875-0.2666015625t0.3212890625-0.1572265625t0.3828125-0.068359375t0.3076171875-0.013671875q0.314453125,0,0.6767578125,0.095703125t0.4169921875,0.41015625l0.08203125,0.587890625q0.341796875,2.4609375,0.46484375,4.8671875t0.177734375,4.8125q0.1640625,0.02734375,0.3486328125,0.0888671875t0.3759765625,0.1162109375q0.13671875,0.0546875,0.3896484375,0.1640625t0.2529296875,0.341796875q0,0.21875-0.19140625,0.341796875t-0.4306640625,0.1845703125t-0.46484375,0.0751953125t-0.2802734375,0.013671875q0.02734375,1.01171875,0.02734375,2.0166015625l0,2.0166015625l0,4.416015625l0,2.4609375q0,0.1640625-0.1572265625,0.2939453125t-0.3759765625,0.2119140625t-0.4580078125,0.109375t-0.4306640625,0.02734375t-0.451171875-0.02734375t-0.46484375-0.109375t-0.3623046875-0.205078125t-0.1572265625-0.30078125l0-0.587890625q0.0546875-2.59765625,0.123046875-5.1474609375t0.13671875-5.1201171875q-1.490234375,0.0546875-3.0283203125,0.068359375t-3.0556640625,0.068359375q0.1640625,1.927734375,0.3759765625,3.8486328125t0.4443359375,3.8486328125q0,0.1640625-0.1572265625,0.2939453125t-0.369140625,0.2119140625t-0.451171875,0.109375t-0.4306640625,0.02734375q-0.396484375,0-0.8681640625-0.13671875t-0.5263671875-0.505859375q-0.1640625-1.44921875-0.3076171875-3.19921875t-0.2529296875-3.5751953125t-0.1708984375-3.5751953125t-0.0615234375-3.171875q0-0.341796875-0.02734375-0.7041015625z M247.7409765625,113.685546875q0-0.08203125,0.0546875-0.5810546875t0.1435546875-1.216796875t0.1982421875-1.544921875t0.19140625-1.5654296875t0.1435546875-1.298828125t0.0615234375-0.751953125q-0.109375-0.0546875-0.2666015625-0.1572265625t-0.1572265625-0.2392578125q0-0.19140625,0.1845703125-0.3076171875t0.3212890625-0.1708984375q0.0546875-0.697265625,0.13671875-1.94140625t0.2529296875-2.6865234375t0.478515625-2.92578125t0.8134765625-2.693359375t1.216796875-1.9755859375t1.75-0.765625t1.72265625,0.65625t1.1142578125,1.708984375t0.65625,2.337890625t0.341796875,2.556640625t0.1435546875,2.37890625t0.0546875,1.77734375q0.02734375,0.423828125,0.205078125,0.5673828125t0.3896484375,0.1982421875t0.3828125,0.123046875t0.1708984375,0.341796875q0,0.314453125-0.3828125,0.4375t-0.6015625,0.150390625q0.13671875,1.708984375,0.3759765625,3.36328125t0.6357421875,3.3359375q0.0546875,0.314453125,0.150390625,0.6357421875t0.095703125,0.6220703125q0,0.21875-0.150390625,0.3623046875t-0.3896484375,0.2255859375t-0.478515625,0.109375t-0.4033203125,0.02734375q-0.615234375,0-1.0390625-0.232421875t-0.560546875-0.888671875q-0.369140625-1.763671875-0.724609375-3.705078125q-0.30078125-1.681640625-0.30078125-3.267578125q0-0.24609375,0.013671875-0.4921875q-1.1484375,0-2.310546875,0.0546875t-2.228515625,0.41015625q-0.02734375,0.369140625-0.13671875,1.39453125t-0.24609375,2.201171875t-0.2802734375,2.2490234375t-0.1708984375,1.5244140625q-0.02734375,0.19140625-0.2802734375,0.3623046875t-0.546875,0.1845703125t-0.51953125-0.1845703125t-0.2255859375-0.7041015625z M250.2976171875,105.400390625q1.06640625-0.24609375,2.1396484375-0.287109375t2.1669921875-0.095703125q-0.0546875-0.341796875-0.02734375-0.7041015625t0.02734375-0.7314453125q0-0.806640625-0.041015625-1.873046875t-0.123046875-2.16015625t-0.2119140625-2.1533203125t-0.2939453125-1.88671875t-0.3486328125-1.3193359375t-0.4033203125-0.4921875q-0.423828125,0.02734375-0.7998046875,0.7314453125t-0.68359375,1.791015625t-0.560546875,2.43359375t-0.423828125,2.6318359375t-0.2802734375,2.392578125t-0.13671875,1.72265625z M261.51771484375,95.26953125q0-0.642578125,0.1572265625-0.9365234375t0.451171875-0.41015625t0.7109375-0.0888671875t0.9775390625,0.02734375q1.421875,0,2.87109375,0.4375t2.611328125,1.2783203125t1.873046875,2.0712890625t0.7109375,2.830078125q0,1.06640625-0.3076171875,2.0166015625t-0.8681640625,1.77734375t-1.3125,1.5107421875t-1.654296875,1.189453125q0.369140625,0.369140625,0.95703125,1.3056640625t1.162109375,1.99609375t1.0185546875,2.0576171875t0.5263671875,1.50390625l-0.1640625,0.24609375q-0.369140625,0.21875-0.888671875,0.232421875q-0.24609375,0-0.642578125-0.0615234375t-0.505859375-0.3623046875q-0.560546875-1.572265625-1.2236328125-3.240234375t-1.6337890625-3.0078125l0-0.02734375q-0.341796875,0.13671875-0.6767578125,0.2666015625t-0.6767578125,0.2392578125q0.109375,1.517578125,0.2255859375,2.9873046875t0.1162109375,2.9736328125q0,0.19140625-0.1845703125,0.3076171875t-0.4169921875,0.1845703125t-0.4716796875,0.095703125t-0.3896484375,0.02734375q-0.13671875,0-0.3896484375-0.02734375t-0.4853515625-0.095703125t-0.4033203125-0.1982421875t-0.1708984375-0.3486328125q0-1.517578125-0.068359375-3.0283203125t-0.150390625-3.0146484375q-0.423828125-0.2734375-0.423828125-0.7109375q0-0.341796875,0.328125-0.46484375q-0.1640625-2.884765625-0.3759765625-5.755859375t-0.2119140625-5.783203125z M263.99232421875,94.845703125q0.19140625,2.966796875,0.4306640625,5.865234375t0.4580078125,5.865234375q0.95703125-0.2734375,1.7841796875-0.9501953125t1.4287109375-1.5244140625t0.9365234375-1.845703125t0.3349609375-1.982421875q0-1.09375-0.4375-2.0986328125t-1.162109375-1.7568359375q-0.73828125-0.751953125-1.6953125-1.17578125q-0.84765625-0.369140625-1.77734375-0.369140625l-0.24609375,0z"/></svg>
